# WaveFront *.obj file (generated by CINEMA 4D)

mtllib ./Mirumijee.mtl

v -1.75 16.39999961853027 3.04999995231628
v 3.5 16.39999961853027 0
v -3.5 16.39999961853027 0
v 1.75 16.39999961853027 3.04999995231628
v 3.5 0 0
v 1.75 0 3.04999995231628
v -1.75 16.39999961853027 -3.04999995231628
v -3.5 0 0
v -1.75 0 -3.04999995231628
v -1.75 0 3.04999995231628
v 1.75 0 -3.04999995231628
v 1.75 16.39999961853027 -3.04999995231628
v -1.75 32.75 3.04999995231628
v 3.5 32.75 0
v -3.5 32.75 0
v 1.75 32.75 3.04999995231628
v 3.5 16.35000038146973 0
v 1.75 16.35000038146973 3.04999995231628
v -1.75 32.75 -3.04999995231628
v -3.5 16.35000038146973 0
v -1.75 16.35000038146973 -3.04999995231628
v -1.75 16.35000038146973 3.04999995231628
v 1.75 16.35000038146973 -3.04999995231628
v 1.75 32.75 -3.04999995231628
v -1.75 -16.39999961853027 -3.04999995231628
v 3.5 -16.39999961853027 0
v -3.5 -16.39999961853027 0
v 1.75 -16.39999961853027 -3.04999995231628
v -1.75 -16.39999961853027 3.04999995231628
v 1.75 -16.39999961853027 3.04999995231628
v 1.75 -32.75 3.04999995231628
v -3.5 -32.75 0
v 3.5 -32.75 0
v -1.75 -32.75 3.04999995231628
v -3.5 -16.35000038146973 0
v -1.75 -16.35000038146973 3.04999995231628
v 1.75 -32.75 -3.04999995231628
v 3.5 -16.35000038146973 0
v 1.75 -16.35000038146973 -3.04999995231628
v 1.75 -16.35000038146973 3.04999995231628
v -1.75 -16.35000038146973 -3.04999995231628
v -1.75 -32.75 -3.04999995231628
# 42 vertices

vn 0 1 0
vn 0 0 0
vn 0 1 0
vn 0.65610468387604 0 0.75466990470886
vn 0.98219734430313 0 0.1878519654274
vn 0.98219734430313 0 -0.1878519654274
vn 0.3280523121357 0 0.94465953111649
vn -0.65610468387604 0 -0.75466990470886
vn -0.98219734430313 0 -0.1878519654274
vn -0.98219734430313 0 0.1878519654274
vn -0.3280523121357 0 -0.94465953111649
vn -0.65610468387604 0 0.75466990470886
vn -0.3280523121357 0 0.94465953111649
vn 0.65610468387604 0 -0.75466990470886
vn 0.3280523121357 0 -0.94465953111649
vn 0 -1 0
vn 0 -1 0
# 17 normals

vt 0.9450980424881 0.72440946102142 0
vt 0.98823529481888 0.7952755689621 0
vt 0.92941176891327 0.7952755689621 0
vt 0.97254902124405 0.72440946102142 0
vt 0.51764708757401 0.80314958095551 0
vt 0.76862746477127 0.69291341304779 0
vt 0.51764708757401 0.69291341304779 0
vt 0.76862746477127 0.80314958095551 0
vt 0.51764708757401 0.57480317354202 0
vt 0.76862746477127 0.68503940105438 0
vt 0.51764708757401 0.68503940105438 0
vt 0.76862746477127 0.57480317354202 0
vt 0.51764708757401 0.84251970052719 0
vt 0.76862746477127 0.96850395202637 0
vt 0.51764708757401 0.96850395202637 0
vt 0.76862746477127 0.84251970052719 0
vt 0.51764708757401 0.43307089805603 0
vt 0.76862746477127 0.56692916154861 0
vt 0.51764708757401 0.56692916154861 0
vt 0.76862746477127 0.43307089805603 0
vt 0.97647058963776 0.86614173650742 0
vt 0.92549020051956 0.78740155696869 0
vt 0.99215686321259 0.7952755689621 0
vt 0.94117647409439 0.86614173650742 0
vt 0.94117647409439 0.71653544902802 0
vt 0.97647058963776 0.71653544902802 0
vt 0.97254902124405 0.85826772451401 0
vt 0.9450980424881 0.85826772451401 0
vt 0.88627451658249 0.97637796401978 0
vt 0.80784314870834 0.85826772451401 0
vt 0.91372549533844 0.85826772451401 0
vt 0.83529412746429 0.97637796401978 0
vt 0.5137255191803 0.80314958095551 0
vt 0.76470589637756 0.69291341304779 0
vt 0.5137255191803 0.69291341304779 0
vt 0.76470589637756 0.80314958095551 0
vt 0.5137255191803 0.57480317354202 0
vt 0.76470589637756 0.68503940105438 0
vt 0.5137255191803 0.68503940105438 0
vt 0.76470589637756 0.57480317354202 0
vt 0.5137255191803 0.8503937125206 0
vt 0.76470589637756 0.97637796401978 0
vt 0.5137255191803 0.97637796401978 0
vt 0.76470589637756 0.8503937125206 0
vt 0.5137255191803 0.43307089805603 0
vt 0.76470589637756 0.55905514955521 0
vt 0.5137255191803 0.55905514955521 0
vt 0.76470589637756 0.43307089805603 0
vt 0.83529412746429 0.74803149700165 0
vt 0.88627451658249 0.74803149700165 0
vt 0.92549020051956 0.7952755689621 0
vt 0.76470589637756 0.96850395202637 0
vt 0.5137255191803 0.84251970052719 0
vt 0.76470589637756 0.84251970052719 0
vt 0.5137255191803 0.96850395202637 0
vt 0.99215686321259 0.78740155696869 0
vt 0.51764708757401 0.55905514955521 0
# 57 texture coordinates

o Mesh
usemtl material
f 1/1/1 2/2/1 3/3/1
f 1/1/1 4/4/3 2/2/1
f 4/5/4 5/6/5 2/7/6
f 4/5/4 6/8/7 5/6/5
f 7/9/8 8/10/9 3/11/10
f 7/9/8 9/12/11 8/10/9
f 3/11/10 10/8/12 1/5/13
f 3/11/10 8/10/9 10/8/12
f 2/7/6 11/12/14 12/9/15
f 2/7/6 5/6/5 11/12/14
f 1/13/13 6/14/7 4/15/4
f 1/13/13 10/16/12 6/14/7
f 12/17/15 9/18/11 7/19/8
f 12/17/15 11/20/14 9/18/11
f 6/21/16 8/22/16 5/23/16
f 6/21/16 10/24/17 8/22/16
f 9/25/16 5/23/16 8/22/16
f 9/25/16 11/26/16 5/23/16
f 12/27/1 3/3/1 2/2/1
f 12/27/1 7/28/1 3/3/1
f 13/29/1 14/30/1 15/31/1
f 13/29/1 16/32/3 14/30/1
f 16/33/4 17/34/5 14/35/6
f 16/33/4 18/36/7 17/34/5
f 19/37/8 20/38/9 15/39/10
f 19/37/8 21/40/11 20/38/9
f 15/39/10 22/36/12 13/33/13
f 15/39/10 20/38/9 22/36/12
f 14/35/6 23/40/14 24/37/15
f 14/35/6 17/34/5 23/40/14
f 13/41/13 18/42/7 16/43/4
f 13/41/13 22/44/12 18/42/7
f 24/45/15 21/46/11 19/47/8
f 24/45/15 23/48/14 21/46/11
f 18/21/16 20/22/16 17/23/16
f 18/21/16 22/24/17 20/22/16
f 21/25/16 17/23/16 20/22/16
f 21/25/16 23/26/16 17/23/16
f 24/49/1 15/31/1 14/30/1
f 24/49/1 19/50/1 15/31/1
f 25/25/16 26/23/16 27/51/16
f 25/25/16 28/26/16 26/23/16
f 28/40/14 5/35/6 26/34/5
f 28/40/14 11/37/15 5/35/6
f 29/36/12 8/39/10 27/38/9
f 29/36/12 10/33/13 8/39/10
f 27/38/9 9/37/8 25/40/11
f 27/38/9 8/39/10 9/37/8
f 26/34/5 6/33/4 30/36/7
f 26/34/5 5/35/6 6/33/4
f 25/46/11 11/45/15 28/48/14
f 25/46/11 9/47/8 11/45/15
f 30/52/7 10/53/13 29/54/12
f 30/52/7 6/55/4 10/53/13
f 11/49/1 8/31/1 5/30/1
f 11/49/1 9/50/1 8/31/1
f 10/29/1 5/30/1 8/31/1
f 10/29/1 6/32/3 5/30/1
f 30/21/16 27/51/16 26/23/16
f 30/21/16 29/24/17 27/51/16
f 31/21/16 32/22/16 33/56/16
f 31/21/16 34/24/17 32/22/16
f 34/36/12 35/11/10 32/38/9
f 34/36/12 36/5/13 35/11/10
f 37/40/14 38/7/6 33/34/5
f 37/40/14 39/9/15 38/7/6
f 33/34/5 40/5/4 31/36/7
f 33/34/5 38/7/6 40/5/4
f 32/38/9 41/9/8 42/40/11
f 32/38/9 35/11/10 41/9/8
f 31/52/7 36/13/13 34/54/12
f 31/52/7 40/15/4 36/13/13
f 42/46/11 39/17/15 37/48/14
f 42/46/11 41/57/8 39/17/15
f 36/21/1 38/51/1 35/56/1
f 36/21/1 40/24/3 38/51/1
f 39/25/1 35/56/1 38/51/1
f 39/25/1 41/26/1 35/56/1
f 42/25/16 33/56/16 32/22/16
f 42/25/16 37/26/16 33/56/16

